<svg width="348" height="116" viewBox="0 0 348 116" fill="none" xmlns="http://www.w3.org/2000/svg">
<path d="M22.7198 91.9999L28.1198 60.7999H57.3998L60.6398 41.8399H31.4798L34.5998 24.7999H69.3998L72.7598 5.83992H15.9998L0.759766 91.9999H22.7198Z" fill="black"/>
<path d="M89.4941 61.9999C91.7741 48.7999 100.294 45.4399 115.054 47.7199L118.774 27.0799C105.574 27.0799 98.1341 31.3999 91.8941 39.0799L93.9341 27.4399H75.8141L64.4141 91.9999H84.2141L89.4941 61.9999Z" fill="black"/>
<path d="M149.476 10.5199C149.476 4.87993 145.156 0.919922 138.436 0.919922C130.396 0.919922 123.556 7.15993 123.556 14.4799C123.556 19.9999 127.876 23.9599 134.476 23.9599C142.756 23.9599 149.476 17.8399 149.476 10.5199ZM132.556 91.9999L143.956 27.4399H124.156L112.756 91.9999H132.556Z" fill="black"/>
<path d="M144.955 66.0799C144.955 81.9199 154.795 93.0799 168.475 93.0799C176.635 93.0799 183.475 89.4799 187.915 83.9599L186.475 91.9999H204.595L219.835 5.83992H200.035L194.635 36.1999C191.995 30.1999 185.755 26.2399 177.355 26.2399C159.115 26.2399 144.955 43.5199 144.955 66.0799ZM165.715 63.7999C165.715 52.0399 171.835 43.9999 180.475 43.9999C186.475 43.9999 190.675 48.6799 190.675 55.3999C190.675 67.3999 184.555 75.1999 175.915 75.1999C170.035 75.1999 165.715 70.5199 165.715 63.7999Z" fill="black"/>
<path d="M252.489 91.9999H268.449L275.529 52.1599C278.169 36.9199 268.209 26.2399 251.169 26.2399C233.649 26.2399 222.129 35.7199 220.929 51.0799H238.809C239.889 44.8399 243.129 41.9599 249.009 41.9599C254.889 41.9599 258.009 45.5599 256.929 51.0799L256.329 54.0799C254.289 53.5999 251.049 53.3599 247.449 53.3599C228.129 53.3599 215.769 62.1199 215.769 75.7999C215.769 86.2399 223.569 93.1999 235.329 93.1999C243.489 93.1999 249.489 90.6799 253.689 85.5199L252.489 91.9999ZM234.849 73.2799C234.849 68.2399 239.049 65.3599 246.609 65.3599C249.129 65.3599 251.769 65.5999 254.409 66.1999L253.689 70.3999C252.729 75.9199 248.409 79.3999 242.409 79.3999C238.089 79.3999 234.849 76.7599 234.849 73.2799Z" fill="black"/>
<path d="M347.33 27.4399H325.97L307.13 67.9999L300.77 27.4399H280.73L293.33 91.2799L279.65 115.16H301.37L347.33 27.4399Z" fill="black"/>
</svg>
